PathFileType	4	(X/Y/Z)	C:/Users/opensim2020/Desktop/walking_exp_matlab/subject06_walking15_straight_01.trc	
DataRate	CameraRate	NumFrames	NumMarkers	Units	OrigDataRate	OrigDataStartFrame	OrigNumFrames	
100.00	100.00	6	47	mm	100.00	979	232	
Frame#	Time	LFHD			RFHD			LBHD			RBHD			C7			T10			CLAV			STRN			RBAK			LSHO			LUPA			LELB			LFRM			LWRA			LWRB			LFIN			RSHO			RUPA			RELB			RFRM			RWRA			RWRB			RFIN			LASI			RASI			LPSI			RPSI			LTHI			LKNE			LTIB			LANK			LHEE			LTOE			RTHI			RKNE			RTIB			RANK			RHEE			RTOE			*39			*40			*41			*42			*43			*44			*45			*46			
		X1	Y1	Z1	X2	Y2	Z2	X3	Y3	Z3	X4	Y4	Z4	X5	Y5	Z5	X6	Y6	Z6	X7	Y7	Z7	X8	Y8	Z8	X9	Y9	Z9	X10	Y10	Z10	X11	Y11	Z11	X12	Y12	Z12	X13	Y13	Z13	X14	Y14	Z14	X15	Y15	Z15	X16	Y16	Z16	X17	Y17	Z17	X18	Y18	Z18	X19	Y19	Z19	X20	Y20	Z20	X21	Y21	Z21	X22	Y22	Z22	X23	Y23	Z23	X24	Y24	Z24	X25	Y25	Z25	X26	Y26	Z26	X27	Y27	Z27	X28	Y28	Z28	X29	Y29	Z29	X30	Y30	Z30	X31	Y31	Z31	X32	Y32	Z32	X33	Y33	Z33	X34	Y34	Z34	X35	Y35	Z35	X36	Y36	Z36	X37	Y37	Z37	X38	Y38	Z38	X39	Y39	Z39	X40	Y40	Z40	X41	Y41	Z41	X42	Y42	Z42	X43	Y43	Z43	X44	Y44	Z44	X45	Y45	Z45	X46	Y46	Z46	X47	Y47	Z47	

204	2.030	1328.52783	841.68451	1652.20447	1459.55066	856.50513	1651.17419	1345.67090	712.09430	1590.99475	1474.47900	727.66797	1594.97803	1406.07935	725.84735	1438.77734	1433.72766	702.04108	1109.85071	1405.14832	839.18860	1366.14636	1406.95239	885.53479	1193.55017	1495.55298	660.85724	1269.95447	1244.29053	774.20740	1388.32922	1184.68835	736.54309	1186.63501	1182.51245	708.16766	1077.39514	1162.48962	699.59399	927.37329	1195.01611	744.98694	803.51770	1171.20862	678.36255	810.14111	1166.29797	701.21539	722.26483	1566.30298	795.80328	1402.86438	1664.85986	775.94684	1207.54834	1682.49207	805.56854	1091.93689	1692.37000	876.46283	998.09857	1643.00378	997.22858	920.23492	1686.97241	958.04865	889.15778	1680.59973	1031.22876	849.94794	1331.29102	885.16357	961.98889	1547.10815	879.48297	963.36438	1354.92212	723.81256	976.01941	1522.42969	728.17712	978.29742	1271.98828	882.86469	648.88422	1302.58057	928.10980	493.98074	1318.41980	930.89032	236.11784	1366.88269	951.38977	67.98175	1416.10645	913.88824	54.52050	1366.99829	1097.28430	43.32440	1606.71692	823.84418	617.69592	1592.91443	823.97070	489.54565	1572.13635	639.69067	298.24561	1523.33069	508.72110	169.64536	1476.59070	467.55283	180.98473	1513.91321	586.82538	39.00988	1395.07629	745.80414	1690.07813																					 
205	2.040	1326.86780	851.86353	1652.90955	1458.25208	866.76727	1652.33838	1343.87146	722.20367	1592.08801	1472.66089	737.55463	1596.29785	1404.54980	735.70612	1439.70044	1432.91602	712.25122	1111.12659	1404.04407	849.32806	1367.38818	1406.16199	896.06689	1195.03772	1494.29614	670.94366	1271.17322	1243.03906	785.18475	1389.58899	1183.08923	749.27765	1187.65796	1180.71436	722.15485	1078.17395	1160.92737	714.79706	928.03943	1193.95642	761.07739	804.64008	1169.75781	694.78949	810.48163	1165.00488	718.32910	722.86804	1564.80798	805.34821	1404.51733	1663.12805	784.96423	1209.25574	1680.15393	814.02716	1093.19885	1691.01392	882.80664	997.49719	1642.84363	1001.67303	915.80804	1686.41052	960.96759	885.87488	1681.20203	1033.34985	844.76013	1329.83826	895.45514	963.81396	1545.62402	889.93231	964.55725	1354.35315	734.19525	977.64478	1521.75574	738.37830	978.82941	1271.01379	890.59747	649.71124	1301.42139	934.57031	494.21738	1318.07227	934.02771	236.30763	1367.19751	951.81732	67.99731	1416.21143	914.08380	54.60283	1367.53503	1097.90186	42.65446	1606.74121	839.48535	618.06714	1593.65991	842.39880	490.00775	1572.24475	657.01740	303.27032	1522.11975	522.76227	178.20326	1475.22656	482.70300	191.73994	1513.18774	593.22711	42.95740	1393.16064	756.09290	1691.20471																					 
206	2.050	1325.14160	862.11859	1653.68347	1456.55884	876.72778	1653.39490	1342.12390	732.20166	1593.05408	1470.97620	747.41418	1597.60400	1403.51843	745.80316	1440.54761	1431.97913	722.54388	1112.30786	1403.09558	859.47803	1368.64771	1405.37146	906.54724	1196.40735	1493.13745	680.91211	1272.37122	1241.91125	796.01434	1390.83142	1181.67664	762.10999	1188.56763	1178.81726	735.77911	1079.02454	1159.33630	730.52356	928.76904	1191.58276	778.61133	806.49579	1167.80017	711.78595	810.99847	1163.62451	736.07764	723.48474	1563.39050	814.80231	1406.06494	1661.52332	793.98547	1210.85010	1677.96106	822.29407	1094.37659	1689.72424	888.79437	996.78137	1642.95691	1005.64130	911.22028	1686.40918	963.80511	882.82281	1681.78284	1034.88623	839.37708	1328.38354	905.52875	965.20129	1544.26990	900.09711	965.60248	1353.63013	744.37384	979.16156	1520.95496	748.48859	979.29468	1270.12500	897.88458	650.16223	1300.80127	940.67987	494.17120	1318.11682	936.62543	236.26088	1367.50073	952.21539	68.06503	1416.39478	914.26849	54.74784	1367.87036	1098.37915	42.07330	1606.46045	854.66949	618.54675	1594.25220	860.59930	490.74915	1572.05127	674.75037	307.99738	1520.73572	537.45215	187.04102	1473.32336	498.43271	202.19254	1513.28406	601.31421	47.97066	1391.23975	766.21356	1692.25317																					 
207	2.060	1323.46326	872.11957	1654.53735	1454.91064	886.57440	1654.65894	1340.55481	742.18903	1593.96436	1469.38953	757.27319	1599.00586	1401.75818	755.37897	1441.43713	1431.02917	732.38873	1113.42346	1402.15796	869.51111	1369.89148	1404.69629	916.88715	1197.74915	1492.07141	690.85364	1273.58801	1240.79260	806.64563	1392.01270	1180.47363	774.91791	1189.35608	1177.18262	749.73041	1079.61267	1157.64233	746.44550	929.22186	1190.74316	795.45380	807.50696	1166.06653	728.88446	811.20215	1162.20667	754.45416	724.06354	1562.14758	824.17841	1407.46252	1660.16736	803.12061	1212.27637	1676.28357	830.49164	1095.48535	1688.62012	894.41833	995.88995	1643.02881	1009.15247	906.43976	1686.61963	966.45343	879.82031	1682.35596	1035.93896	833.87109	1326.98352	915.37885	966.30896	1543.21240	909.98810	966.61389	1352.69617	754.46692	980.43402	1520.41809	757.52283	980.13898	1269.37244	904.90546	650.58673	1299.64624	945.75006	494.05402	1318.05298	938.53931	236.12102	1367.68604	952.49042	68.10851	1416.47314	914.45398	54.88383	1367.88293	1098.60913	41.48626	1606.09546	869.43341	619.21600	1594.53516	878.87909	491.85455	1571.39319	692.55310	312.39932	1519.20813	552.61072	195.53366	1471.09314	515.12195	211.11676	1515.29773	611.54834	53.15703	1389.27063	776.13110	1693.35266																					 
208	2.070	1321.81653	881.94794	1655.50818	1453.29590	896.33020	1656.12866	1338.95398	752.06006	1594.99817	1467.87390	766.98499	1600.45447	1400.91248	765.43146	1442.62097	1429.92981	742.47607	1114.60376	1401.31055	879.47418	1371.22864	1403.94678	927.04358	1199.06201	1490.92200	700.55743	1274.72961	1239.72217	817.19434	1393.18433	1178.88403	787.62085	1190.15259	1175.39746	763.48889	1080.11072	1155.99890	762.60114	929.66840	1189.96143	812.75531	808.43213	1164.25098	746.46161	811.50348	1160.63953	773.73230	724.50568	1561.16479	833.59125	1408.77039	1658.99890	812.17542	1213.47131	1674.70837	838.12146	1096.15698	1687.67932	899.77600	994.76318	1643.08740	1012.25787	901.55780	1686.62402	968.41650	876.53412	1683.00366	1036.46704	828.28113	1325.73706	924.90112	967.22894	1542.44324	919.77771	967.74774	1351.72363	764.18091	981.73004	1519.54382	767.28345	980.88348	1268.71082	911.83710	651.06030	1298.61426	950.55951	493.88031	1317.60901	940.04187	236.15820	1367.83044	952.72473	68.11514	1416.52271	914.53400	55.02266	1367.82227	1098.76440	41.17358	1605.48804	883.76904	620.09760	1594.16968	896.78479	493.23889	1570.37488	710.60510	316.29388	1517.45886	568.71527	202.42633	1468.05457	532.31824	217.49980	1519.23413	624.80127	58.28047	1387.44397	785.91412	1694.56531																					 
209	2.080	1320.25989	891.66534	1656.62793	1451.75281	905.98950	1657.73462	1337.59326	761.71674	1596.09302	1466.47083	776.72473	1602.08301	1399.69690	775.33228	1444.03992	1428.81958	752.39764	1115.63367	1400.45605	889.31122	1372.56348	1403.13110	937.04236	1200.45410	1489.73157	710.13721	1275.99512	1238.63940	827.59338	1394.26001	1177.47437	800.25989	1190.75891	1173.73242	777.50500	1080.46997	1154.30457	778.89014	929.97565	1189.35889	830.36340	809.29352	1162.51294	764.87396	811.53131	1159.07410	793.25061	725.07367	1560.34790	843.05280	1409.97510	1658.00500	821.05029	1214.45605	1673.51160	845.65662	1096.60754	1686.82239	904.81781	993.41187	1643.27832	1014.96918	896.57953	1686.61255	969.92505	873.13947	1683.45557	1036.60205	822.59625	1324.68054	934.34937	968.13934	1541.83521	929.52545	968.98151	1350.83594	773.80475	982.86017	1518.08643	779.16058	981.21155	1268.11121	918.58179	651.58392	1297.67944	955.15393	493.92422	1316.92798	941.65662	236.36346	1367.67639	952.68323	68.14641	1416.42664	914.55896	55.15133	1367.67517	1099.04797	41.06796	1604.86719	897.88708	621.46283	1593.43506	914.31372	495.01956	1569.37952	728.79846	319.73972	1516.23193	585.77582	207.69453	1465.81409	550.03363	221.61662	1523.31934	641.12933	63.73641	1385.68481	795.59399	1695.87500																					 
